<svg xmlns="http://www.w3.org/2000/svg" width="1000" height="1000" viewBox="0 0 264.58333 264.58334"><circle cx="132.29166" cy="132.29167" r="132.11478" style="opacity:.993;fill:#e6186c;stroke:none;stroke-width:.353792;stroke-linecap:round;stroke-linejoin:round;fill-opacity:1"/><g style="font-style:normal;font-variant:normal;font-weight:900;font-stretch:normal;font-size:240.16px;font-family:&quot;Noto Sans CJK KR&quot;;letter-spacing:0;word-spacing:0;fill:#fff;fill-opacity:1;stroke:none;stroke-width:.400267"><path d="M133.492 51.598c-29.3 0-51.874 17.291-51.874 42.748 0 13.69 7.445 26.658 23.776 34.583v.72c-18.012 7.926-29.3 21.135-29.3 40.348 0 21.854 18.973 42.988 55.477 42.988 33.382 0 56.918-18.732 56.918-46.59 0-19.454-12.728-32.903-29.78-39.387v-.72c17.052-8.406 24.016-22.095 24.016-35.304 0-19.213-15.13-39.386-48.992-39.386zm-1.2 140.494c-16.331 0-26.418-12.008-25.938-25.457 0-12.729 8.406-23.056 23.056-27.139 17.531 4.804 29.06 13.45 29.06 29.3 0 13.449-10.328 23.296-25.938 23.296zm.24-120.08c15.61 0 22.095 11.287 22.095 22.094 0 11.768-8.646 20.414-19.453 23.536-14.89-4.083-25.457-11.768-25.457-24.496 0-11.288 7.685-21.134 22.575-21.134z" style="font-style:normal;font-variant:normal;font-weight:600;font-stretch:normal;font-size:240.16px;font-family:&quot;Myriad Pro&quot;;text-align:center;text-anchor:middle;fill:#fff;fill-opacity:1;stroke-width:.400267"/></g></svg>