<svg xmlns="http://www.w3.org/2000/svg" width="1000" height="1000" viewBox="0 0 264.58333 264.58334"><circle cx="132.29166" cy="132.29167" r="132.11478" style="opacity:.993;fill:#005bac;stroke:none;stroke-width:.353792;stroke-linecap:round;stroke-linejoin:round;fill-opacity:1"/><g style="font-style:normal;font-variant:normal;font-weight:900;font-stretch:normal;font-size:115.711px;font-family:&quot;Noto Sans CJK KR&quot;;letter-spacing:0;word-spacing:0;fill:#fff;fill-opacity:1;stroke:none;stroke-width:.192851"><path d="M84.56 141.433q7.87 0 14.58 1.504 6.827 1.504 11.803 4.281 4.86 2.777 7.637 6.827 2.893 4.05 2.893 9.257 0 5.323-2.893 9.373-2.777 4.05-7.637 6.827-4.976 2.777-11.803 4.165-6.71 1.389-14.695 1.389-7.984 0-14.695-1.389-6.711-1.388-11.571-4.165-4.976-2.777-7.753-6.827-2.661-4.05-2.661-9.373 0-5.091 2.777-9.14 2.893-4.05 7.868-6.944 4.976-2.777 11.687-4.28 6.711-1.505 14.464-1.505zm0 10.298q-10.066 0-16.43 3.009-6.364 3.008-6.364 8.33 0 5.44 6.364 8.563 6.48 3.24 16.43 3.24 10.183 0 16.432-3.24 6.364-3.24 6.364-8.562 0-5.439-6.248-8.331-6.249-3.009-16.547-3.009zm.348-67.922q1.736 0 2.43.81.81.694.81 2.43-1.967 18.05-13.075 31.936-11.109 13.77-33.21 21.06l-8.1-9.489q17.01-4.744 26.846-13.885 9.95-9.257 12.844-21.754H39.896V83.809Zm22.217 57.392V126.97H87.454v-10.761h19.786v-12.15H89.652v-10.76h17.473v-13.77H120.2V141.2zM204.322 140.854V79.527h13.075v23.721h13.423v10.993h-13.423v26.613zm-21.175.579q7.868 0 14.58 1.504 6.71 1.504 11.686 4.281 4.86 2.777 7.637 6.827 2.777 4.05 2.777 9.257 0 5.323-2.777 9.373-2.777 4.05-7.637 6.827-4.976 2.777-11.687 4.165-6.711 1.389-14.695 1.389t-14.695-1.389q-6.596-1.388-11.456-4.165-4.86-2.777-7.637-6.827-2.661-4.05-2.661-9.373 0-5.091 2.777-9.14 2.777-4.05 7.753-6.944 4.975-2.777 11.57-4.28 6.712-1.505 14.465-1.505zm0 10.298q-10.067 0-16.316 3.009-6.248 3.008-6.248 8.33 0 5.44 6.248 8.563 6.364 3.24 16.316 3.24 10.182 0 16.315-3.24 6.248-3.24 6.248-8.562 0-5.439-6.132-8.331-6.133-3.009-16.431-3.009zm2.43-67.922q1.735 0 2.43.81.81.694.81 2.43-2.083 19.092-13.539 32.746-11.455 13.538-32.862 20.596l-8.1-9.488q16.663-4.513 26.614-13.77 9.951-9.256 13.075-22.216h-34.019V83.809Z" style="font-style:normal;font-variant:normal;font-weight:700;font-stretch:normal;font-size:115.711px;font-family:&quot;KoPubDotum Bold&quot;;text-align:center;text-anchor:middle;fill:#fff;fill-opacity:1;stroke-width:.192851"/></g></svg>