<svg xmlns="http://www.w3.org/2000/svg" width="1000" height="1000" viewBox="0 0 264.58333 264.58334"><circle cx="132.29166" cy="132.29167" r="132.11478" style="opacity:.993;fill:#77c4a3;stroke:none;stroke-width:.353792;stroke-linecap:round;stroke-linejoin:round;fill-opacity:1"/><g style="font-style:normal;font-variant:normal;font-weight:900;font-stretch:normal;font-size:94.0912px;font-family:&quot;Noto Sans CJK KR&quot;;letter-spacing:0;word-spacing:0;fill:#fff;fill-opacity:1;stroke:none;stroke-width:.156818"><path d="M94.655 93.573q6.398 0 11.856 1.223 5.551 1.224 9.597 3.482 3.952 2.258 6.21 5.551 2.352 3.293 2.352 7.527 0 4.329-2.352 7.622-2.258 3.293-6.21 5.551-4.046 2.258-9.597 3.387-5.458 1.13-11.95 1.13-6.492 0-11.95-1.13-5.457-1.129-9.409-3.387-4.046-2.258-6.304-5.551-2.164-3.293-2.164-7.622 0-4.14 2.258-7.433 2.353-3.293 6.399-5.645 4.046-2.258 9.503-3.482 5.457-1.223 11.761-1.223zm0 8.374q-8.186 0-13.36 2.447-5.176 2.446-5.176 6.774 0 4.422 5.175 6.963 5.27 2.634 13.361 2.634 8.28 0 13.361-2.634 5.175-2.635 5.175-6.963 0-4.422-5.08-6.774-5.082-2.447-13.456-2.447zm.282-55.231q1.412 0 1.976.658.659.565.659 1.976-1.6 14.679-10.632 25.97-9.033 11.196-27.004 17.124l-6.587-7.715q13.832-3.858 21.83-11.291 8.091-7.528 10.443-17.69H58.336v-9.032Zm18.066 46.669V81.812H97.007v-8.75h16.09v-9.88H98.795v-8.75h14.208V43.233h10.632v50.151zM162.965 88.963q-5.08 0-9.22-1.6-4.14-1.6-7.151-4.516-2.917-2.917-4.517-6.869-1.6-3.952-1.6-8.656 0-4.517 1.6-8.469 1.6-3.951 4.517-6.868 3.01-2.917 7.15-4.517 4.14-1.693 9.221-1.693 4.987 0 9.127 1.693 4.14 1.6 7.151 4.517 2.917 2.917 4.517 6.868 1.693 3.952 1.693 8.469 0 4.704-1.693 8.656-1.6 3.952-4.517 6.869-3.01 2.917-7.15 4.516-4.14 1.6-9.128 1.6zm0-34.25q-5.645 0-8.75 3.576-3.011 3.575-3.011 9.033 0 5.363 3.01 9.127 3.106 3.67 8.751 3.67 5.646 0 8.657-3.67 3.105-3.764 3.105-9.127 0-5.458-3.105-9.033-3.011-3.576-8.657-3.576zm-26.345 46.482 25.593-.283q2.164 0 5.927-.188 3.858-.282 8.28-.659 4.423-.376 8.94-.94 4.515-.565 8.09-1.224v8.75q-8.75 1.977-20.981 2.918-12.232.846-26.158.846h-9.691zm69.627-57.867v84.212h-10.632V43.328ZM95.784 188.982q12.609.846 19.195 5.175 6.68 4.234 6.68 10.914 0 7.433-7.997 11.856-7.998 4.422-23.24 4.422-15.338 0-23.336-4.422-7.903-4.423-7.903-11.856 0-6.68 6.492-10.914 6.586-4.329 19.007-5.175v-8.28H51.656v-8.845h77.625v8.845H95.784Zm-5.363 7.903q-8.939 0-14.114 2.07-5.175 2.07-5.175 6.022 0 4.234 5.175 6.116 5.175 1.976 14.114 1.976 8.845 0 14.02-1.976 5.269-1.882 5.269-6.116 0-3.952-5.27-6.022-5.174-2.07-14.019-2.07zm-29.827-59.183h59.654v8.939H96.631q.941 3.293 3.764 5.551 2.822 2.258 6.868 3.764 3.952 1.6 8.657 2.54 4.798.941 9.597 1.506l-6.398 7.715q-4.14-.659-8.468-1.6-4.234-.94-8.092-2.446-3.952-1.411-7.151-3.387-3.2-2.07-5.175-4.799-2.258 2.729-5.457 4.705-3.105 1.976-6.963 3.481-3.764 1.506-7.998 2.54-4.14.941-8.28 1.506l-6.492-7.621q5.645-.941 10.538-2.07 4.987-1.13 8.845-2.635 3.763-1.6 6.304-3.67 2.54-2.164 3.387-5.08H60.594zM157.979 178.914q-5.081 0-9.221-1.6t-7.151-4.422q-2.917-2.823-4.517-6.68-1.6-3.952-1.6-8.563 0-4.516 1.6-8.374 1.6-3.858 4.517-6.68 3.01-2.823 7.15-4.423 4.14-1.693 9.222-1.693 4.986 0 9.126 1.693 4.14 1.6 7.151 4.423 2.917 2.822 4.517 6.68 1.693 3.858 1.693 8.374 0 4.61-1.693 8.563-1.6 3.857-4.517 6.68-3.01 2.823-7.15 4.422-4.14 1.6-9.127 1.6zm0-33.403q-5.646 0-8.75 3.482-3.012 3.481-3.012 8.75 0 5.175 3.011 8.75 3.105 3.482 8.75 3.482 5.646 0 8.657-3.481 3.105-3.576 3.105-8.75 0-5.27-3.105-8.751-3.011-3.482-8.656-3.482zm16.842 40.272q6.398 0 11.855 1.223 5.458 1.223 9.504 3.481 3.951 2.258 6.21 5.551 2.258 3.294 2.258 7.528 0 4.328-2.258 7.621-2.259 3.293-6.21 5.552-4.046 2.258-9.504 3.387-5.457 1.129-11.95 1.129-6.492 0-11.949-1.13-5.363-1.128-9.315-3.386-3.952-2.259-6.21-5.552-2.164-3.293-2.164-7.621 0-4.14 2.258-7.433 2.258-3.294 6.304-5.646 4.046-2.258 9.41-3.481 5.457-1.223 11.76-1.223zm0 8.374q-8.186 0-13.267 2.446-5.08 2.446-5.08 6.775 0 4.422 5.08 6.962 5.175 2.635 13.267 2.635 8.28 0 13.267-2.635 5.08-2.634 5.08-6.962 0-4.423-4.986-6.775-4.987-2.446-13.361-2.446zm27.286-58.62v17.972h10.82v8.939h-10.82v23.805h-10.726v-50.715z" style="font-style:normal;font-variant:normal;font-weight:700;font-stretch:normal;font-size:94.0912px;font-family:&quot;KoPubDotum Bold&quot;;text-align:center;text-anchor:middle;fill:#fff;fill-opacity:1;stroke-width:.156818"/></g></svg>