<svg xmlns="http://www.w3.org/2000/svg" width="264.22955mm" height="264.22955mm" viewBox="0 0 264.22955 264.22955"><path d="M237.089 148.683a132.115 132.115 0 0 1-132.115 132.115A132.115 132.115 0 0 1-27.14 148.683 132.115 132.115 0 0 1 104.974 16.568 132.115 132.115 0 0 1 237.09 148.683Z" style="opacity:.993;fill:#6789ca;stroke-width:.353792;stroke-linecap:round;stroke-linejoin:round" transform="translate(27.14 -16.568)"/><g style="font-size:115.711px;font-family:&quot;KoPubDotum Bold&quot;;fill:#fff;stroke-width:2.89278"><path d="M70.82 81.461v14.117q0 5.207 1.851 10.183 1.967 4.975 5.323 9.256 3.356 4.282 7.984 7.637 4.628 3.356 10.183 5.207l-8.332 9.836q-7.52-3.819-14.116-9.257-6.596-5.554-9.836-11.455-1.041 3.008-3.355 6.248-2.315 3.124-5.555 6.248-3.124 3.009-6.942 5.902-3.819 2.777-7.753 4.975l-10.298-8.794q12.728-6.248 19.786-15.39 7.059-9.256 7.175-20.365V81.461Zm48.83-2.198V155.4h-12.96V79.263ZM53.463 180.857q-1.851 0-2.545-.694-.579-.695-.579-2.546v-30.2H63.53v22.332h58.55v11.108zM142.56 104.14h33.673V93.496H139.32v-10.76h46.516q1.735 0 2.43.809.81.694.81 2.43v24.994q0 1.85-.81 2.545-.695.694-2.43.694H152.28v11.109l22.911-.232q3.124 0 6.827-.231 3.703-.232 7.521-.579 3.703-.347 7.059-.81 3.355-.578 5.9-1.157v10.414q-4.165 1.042-11.686 1.852-7.405.694-16.2 1.041-4.28.231-9.72.347-5.438.116-10.297.116H142.56q-1.852 0-2.546-.694-.694-.695-.694-2.546V107.38q0-1.736.694-2.43.694-.81 2.546-.81zm77.296-24.877v60.748h-13.191V79.263Zm-13.076 91.759v-15.969h-44.086v15.969zm-53.805-26.73h63.64q1.736 0 2.43.81.81.695.81 2.43v30.895q0 1.851-.81 2.546-.694.694-2.43.694h-63.64q-1.852 0-2.546-.694-.694-.695-.694-2.546v-30.895q0-1.735.694-2.43.694-.81 2.546-.81z"/></g></svg>