<svg xmlns="http://www.w3.org/2000/svg" width="264.58301mm" height="264.58301mm" viewBox="0 0 264.58301 264.58301"><path d="M264.583 132.292a132.292 132.292 0 0 1-132.291 132.291A132.292 132.292 0 0 1 0 132.292 132.292 132.292 0 0 1 132.292 0a132.292 132.292 0 0 1 132.291 132.292Z" style="opacity:.993;fill:#b7c450;fill-opacity:1;stroke:none;stroke-width:7.94815;stroke-linecap:round;stroke-linejoin:round;stroke-miterlimit:4;stroke-dasharray:none;stroke-opacity:1"/><path d="M157.616 179.822c.982.023 12.018-.079 16.773 0 10.024.167 17.906-6.683 22.726-16.3 3.096-6.179 38.648-89.391 38.648-89.391h-19.466c-7.545 0-17.32 7.46-20.27 14.126-11.745 26.548-34.442 79.99-34.442 79.99s-4.15 7.275-6.985 8.22c-1.85.616-6.055.048-6.055.048 1.925 2.882 6.007 3.224 9.071 3.307zM109.748 77.24c-.91-2.131-3.903-2.972-6.148-2.972H84.156c-9.076 0-19.595 9.977-21.982 16.07-7.71 19.672-16.356 39.195-25.124 58.197-10.861 23.538.72 31.918 16.437 31.972 19.767.069 39.534 0 59.3 0 14.337 0 19.81-9.58 24.857-20.88 10.384-23.254 27.273-63.85 30.603-71.606 3.33-7.757 9.027-12.331 14.221-10.443-1.922-3.156-6.471-3.495-10.433-3.495h-13.568c-14.57 0-23.415 11.543-27.505 22.802-4.09 11.26-14.189 34.468-22.665 51.828-1.699 3.48-5.437 10.346-11.245 10.346H72.831c-4.02 0-4.303-6.288-2.343-10.755 9.258-21.092 18.429-42.155 27.596-63.811.889-2.1 5.946-8.268 11.664-7.252Z" style="fill:#fff;stroke:none;stroke-width:.264583px;stroke-linecap:butt;stroke-linejoin:miter;stroke-opacity:1" transform="matrix(.95688 0 0 .95688 3.8 10.47)"/></svg>