<svg xmlns="http://www.w3.org/2000/svg" width="1000" height="1000" viewBox="0 0 264.58333 264.58334"><circle cx="132.29166" cy="132.29167" r="132.11478" style="opacity:.993;fill:#fb8100;stroke:none;stroke-width:.353792;stroke-linecap:round;stroke-linejoin:round;fill-opacity:1"/><g style="fill:#fff"><path d="m10.89 21 5.62-21H6.17L.5 21.18C-.46 25 0 28 1.79 30.33c2.21 2.77 6.27 4.24 11.8 4.24a25.06 25.06 0 0 0 10-1.91C19 31.72 9 27.92 10.89 21Z" class="cls-1" style="fill:#fff" transform="matrix(3.70325 0 0 3.70325 65.224 76.293)"/><path d="M39.15 0H28.86l-5.55 20.73a8.1 8.1 0 0 1-6.78 5.56c4.81.8 14.09-.06 16.77-4.87a4.11 4.11 0 0 0 .47-1.19l4-15.12A5.85 5.85 0 0 1 42.92.84l.22-.84Z" class="cls-1" style="fill:#fff" transform="matrix(3.70325 0 0 3.70325 65.224 76.293)"/><path d="M32.58 23.88a15.72 15.72 0 0 1-2.76 4.24 16.84 16.84 0 0 1-4.54 3.64c-4.09-.5-11.42-2.9-13.71-7.09 1.61 2.13 7 3 11.85 2.58 3.93-.36 7.52-1.66 9.16-3.37z" class="cls-2" style="fill:#fff" transform="matrix(3.70325 0 0 3.70325 65.224 76.293)"/></g></svg>