<svg xmlns="http://www.w3.org/2000/svg" width="1000" height="1000" viewBox="0 0 264.58333 264.58334"><circle cx="132.29166" cy="132.29167" r="132.11478" style="opacity:.993;fill:#759cce;stroke:none;stroke-width:.353792;stroke-linecap:round;stroke-linejoin:round;fill-opacity:1"/><g style="font-style:normal;font-variant:normal;font-weight:900;font-stretch:normal;font-size:95.3383px;font-family:&quot;Noto Sans CJK KR&quot;;letter-spacing:0;word-spacing:0;fill:#fff;fill-opacity:1;stroke:none;stroke-width:.158896"><path d="M57.07 137.25q-5.34 0-9.63-1.812-4.194-1.812-7.15-4.958-2.955-3.05-4.48-7.15-1.526-4.195-1.526-8.867 0-4.671 1.525-8.77 1.526-4.1 4.481-7.246 2.956-3.051 7.15-4.863 4.195-1.811 9.63-1.811 5.339 0 9.534 1.811 4.29 1.812 7.15 4.863 2.955 3.146 4.48 7.245 1.622 4.1 1.622 8.771 0 4.672-1.621 8.867-1.526 4.1-4.481 7.15-2.956 3.146-7.246 4.958-4.195 1.811-9.438 1.811zm0-36.325q-5.816 0-8.962 3.91-3.05 3.908-3.05 9.628 0 5.625 3.145 9.63 3.146 4.004 8.867 4.004 5.72 0 8.866-4.004 3.146-4.005 3.146-9.63 0-5.72-3.146-9.629t-8.866-3.909zm46.716-10.296v62.923H93.108V90.63Zm-54.82 83.707q-1.525 0-2.097-.572-.477-.572-.477-2.098v-25.932H57.26v19.45h48.528v9.152zM120.279 103.88h44.046v8.581H148.5q.286 3.91 2.193 7.532 2.002 3.528 5.053 6.578 2.955 2.956 6.674 5.149 3.718 2.192 7.627 3.241l-6.674 8.009q-3.05-1.145-6.006-3.051-2.956-1.907-5.625-4.1-2.67-2.193-4.958-4.671-2.193-2.48-3.623-4.863-1.335 2.384-3.623 5.149-2.192 2.67-4.957 5.243-2.86 2.67-6.197 4.958-3.242 2.288-6.674 3.718l-7.722-7.722q4.004-1.43 8.008-3.91 4.004-2.478 7.246-5.72 3.146-3.336 5.148-7.245 2.098-3.91 2.288-8.295H120.28zm9.153-13.633h26.122v8.2h-26.122zm59.205.382v63.21h-10.678V125.14h-14.396v-9.057h14.396V90.63Zm-54.915 83.707q-1.526 0-2.098-.572-.476-.572-.476-2.098v-23.644h10.868v17.161h48.527v9.153zM230.3 98.351v67.881h-10.774v-57.108q-.381.382-4.195 2.575-3.718 2.192-10.296 5.53v-10.011q4.576-2.002 8.294-4.767 3.718-2.86 7.341-6.674h7.055q1.43 0 2.002.572.572.572.572 2.002z" style="font-style:normal;font-variant:normal;font-weight:700;font-stretch:normal;font-size:95.3383px;font-family:&quot;KoPubDotum Bold&quot;;text-align:center;text-anchor:middle;fill:#fff;fill-opacity:1;stroke-width:.158896"/></g></svg>