<svg xmlns="http://www.w3.org/2000/svg" width="1000" height="1000" viewBox="0 0 264.58333 264.58334"><circle cx="132.29166" cy="132.29167" r="132.11478" style="opacity:.993;fill:#f5a251;stroke:none;stroke-width:.353792;stroke-linecap:round;stroke-linejoin:round;fill-opacity:1"/><g style="font-style:normal;font-variant:normal;font-weight:900;font-stretch:normal;font-size:95.3383px;font-family:&quot;Noto Sans CJK KR&quot;;letter-spacing:0;word-spacing:0;fill:#fff;fill-opacity:1;stroke:none;stroke-width:.158896"><path d="M48.23 135.666q-5.338 0-9.628-1.812-4.195-1.811-7.15-4.957-2.956-3.051-4.482-7.15-1.525-4.195-1.525-8.867 0-4.672 1.525-8.771 1.526-4.1 4.481-7.246 2.956-3.05 7.15-4.862 4.195-1.812 9.63-1.812 5.339 0 9.534 1.812 4.29 1.811 7.15 4.862 2.955 3.146 4.48 7.246 1.622 4.1 1.622 8.77 0 4.673-1.621 8.867-1.526 4.1-4.481 7.15-2.956 3.147-7.246 4.958-4.195 1.812-9.438 1.812zm0-36.324q-5.815 0-8.961 3.909-3.05 3.909-3.05 9.629 0 5.625 3.145 9.63 3.146 4.003 8.867 4.003 5.72 0 8.866-4.004t3.146-9.63q0-5.72-3.146-9.628-3.146-3.91-8.866-3.91zm46.717-10.297v62.924H84.269V89.045Zm-54.82 83.707q-1.525 0-2.097-.572-.477-.572-.477-2.097V144.15H48.42V163.6H96.95v9.152zM111.44 102.297h44.046v8.58H139.66q.286 3.91 2.193 7.533 2.002 3.527 5.053 6.578 2.955 2.955 6.674 5.148 3.718 2.193 7.627 3.242l-6.674 8.008q-3.05-1.144-6.006-3.05-2.956-1.908-5.625-4.1-2.67-2.193-4.958-4.672-2.193-2.479-3.623-4.862-1.335 2.383-3.623 5.148-2.192 2.67-4.957 5.244-2.86 2.67-6.197 4.957-3.242 2.288-6.674 3.719l-7.722-7.723q4.004-1.43 8.008-3.909t7.246-5.72q3.146-3.337 5.148-7.246 2.098-3.909 2.288-8.294H111.44zm9.152-13.633h26.123v8.2h-26.123zm59.206.381v63.21H169.12v-28.697h-14.396V114.5h14.396V89.045Zm-54.915 83.707q-1.526 0-2.098-.572-.476-.572-.476-2.097v-23.644h10.868v17.16h48.527v9.153zM190.094 162.075v-6.197q3.432-3.242 8.962-8.867 5.625-5.625 10.964-11.822 5.339-6.292 9.248-12.299 3.908-6.101 3.908-10.391 0-5.625-2.955-8.2-2.956-2.669-7.818-2.669t-7.817 3.432q-2.86 3.432-2.86 10.01h-11.06q0-5.148 1.62-9.342 1.717-4.195 4.672-7.055 2.956-2.956 6.865-4.481 4.004-1.621 8.58-1.621 4.481 0 8.485 1.335 4.005 1.239 6.96 3.718 2.956 2.479 4.672 6.101 1.716 3.528 1.716 8.104 0 6.197-3.718 12.776-3.623 6.483-8.676 12.394-4.958 5.91-10.106 10.868-5.148 4.862-8.009 7.723h32.034v9.057h-43.093q-1.525 0-2.097-.572-.477-.477-.477-2.002z" style="font-style:normal;font-variant:normal;font-weight:700;font-stretch:normal;font-size:95.3383px;font-family:&quot;KoPubDotum Bold&quot;;text-align:center;text-anchor:middle;fill:#fff;fill-opacity:1;stroke-width:.158896" transform="translate(1.689 1.583)"/></g></svg>